# xmcd
#
# Track frame offsets: 
#        150
#        16835
#        40803
#        51656
#        62974
#        86403
#        103841
#        123390
#        135050
#        150134
#
# Disc length: 2301 seconds
#
# Revision: 0
# Processed by: cddbd v1.5.2PL0 Copyright (c) Steve Scherf et al.
# Submitted via: ExactAudioCopy v0.99pb4
#
DISCID=7608fb0a
DTITLE=Charlie Daniels - TeJohn, Grease, and Wolfman
DYEAR=2008
DGENRE=
TTITLE0=Great Big Bunches Of Love
TTITLE1=I'll Try Again Tomorrow
TTITLE2=Parchmont Farm
TTITLE3=Tomorrow's Gonna Be Another Day
TTITLE4=Black Autumn
TTITLE5=In The City
TTITLE6=New York City, King Size Rosewood Red
TTITLE7=Evil
TTITLE8=Billy Joe Young
TTITLE9=Drinkin' Wine, Spo-Dee-O-Dee
EXTD=
EXTT0=
EXTT1=
EXTT2=
EXTT3=
EXTT4=
EXTT5=
EXTT6=
EXTT7=
EXTT8=
EXTT9=
PLAYORDER=
